<svg width="20" height="20" viewBox="0 0 20 20" fill="none" xmlns="http://www.w3.org/2000/svg">
<path d="M12 16C10.3333 16 8.91667 15.4167 7.75 14.25C6.58333 13.0833 6 11.6667 6 10C6 8.33333 6.58333 6.91667 7.75 5.75C8.91667 4.58333 10.3333 4 12 4C13.6667 4 15.0833 4.58333 16.25 5.75C17.4167 6.91667 18 8.33333 18 10C18 11.6667 17.4167 13.0833 16.25 14.25C15.0833 15.4167 13.6667 16 12 16ZM7 15.9167C5.54167 15.6806 4.34375 15.0035 3.40625 13.8854C2.46875 12.7674 2 11.4722 2 10C2 8.52778 2.47222 7.23611 3.41667 6.125C4.36111 5.01389 5.55556 4.33333 7 4.08333V5.625C5.97222 5.86111 5.13194 6.38889 4.47917 7.20833C3.82639 8.02778 3.5 8.96181 3.5 10.0104C3.5 11.059 3.82639 11.9896 4.47917 12.8021C5.13194 13.6146 5.97222 14.1389 7 14.375V15.9167ZM12 14.5C13.25 14.5 14.3125 14.0625 15.1875 13.1875C16.0625 12.3125 16.5 11.25 16.5 10C16.5 8.75 16.0625 7.6875 15.1875 6.8125C14.3125 5.9375 13.25 5.5 12 5.5C10.75 5.5 9.6875 5.9375 8.8125 6.8125C7.9375 7.6875 7.5 8.75 7.5 10C7.5 11.25 7.9375 12.3125 8.8125 13.1875C9.6875 14.0625 10.75 14.5 12 14.5Z" fill="#00A63E"/>
</svg>
