<svg width="28" height="28" viewBox="0 0 28 28" fill="none" xmlns="http://www.w3.org/2000/svg">
<path d="M13.825 13.825C14.3306 13.2027 14.7049 12.5611 14.9479 11.9C15.191 11.2389 15.3125 10.4708 15.3125 9.5958C15.3125 8.7208 15.191 7.95274 14.9479 7.29163C14.7049 6.63052 14.3306 5.98885 13.825 5.36663C15.3028 5.03607 16.6007 5.25969 17.7188 6.03746C18.8368 6.81524 19.3958 8.00135 19.3958 9.5958C19.3958 11.1902 18.8368 12.3764 17.7188 13.1541C16.6007 13.9319 15.3028 14.1555 13.825 13.825ZM20.125 23.3333V20.5916C20.125 19.6 19.8722 18.6764 19.3667 17.8208C18.8611 16.9652 17.9861 16.2458 16.7417 15.6625C20.1056 16.0902 22.4049 16.7125 23.6396 17.5291C24.8743 18.3458 25.4917 19.3666 25.4917 20.5916V23.3333H20.125ZM23.3333 14.9041V11.9875H20.4167V10.2375H23.3333V7.3208H25.0833V10.2375H28V11.9875H25.0833V14.9041H23.3333ZM9.1875 13.9708C7.90417 13.9708 6.85417 13.5625 6.0375 12.7458C5.22083 11.9291 4.8125 10.8791 4.8125 9.5958C4.8125 8.31246 5.22083 7.26246 6.0375 6.4458C6.85417 5.62913 7.90417 5.2208 9.1875 5.2208C10.4708 5.2208 11.5208 5.62913 12.3375 6.4458C13.1542 7.26246 13.5625 8.31246 13.5625 9.5958C13.5625 10.8791 13.1542 11.9291 12.3375 12.7458C11.5208 13.5625 10.4708 13.9708 9.1875 13.9708ZM0 23.3333V20.5916C0 19.9111 0.179861 19.2937 0.539583 18.7395C0.899306 18.1854 1.38056 17.7722 1.98333 17.5C3.38333 16.8777 4.63264 16.4305 5.73125 16.1583C6.82986 15.8861 7.98194 15.75 9.1875 15.75C10.3931 15.75 11.5403 15.8861 12.6292 16.1583C13.7181 16.4305 14.9625 16.8777 16.3625 17.5C16.9653 17.7722 17.4514 18.1854 17.8208 18.7395C18.1903 19.2937 18.375 19.9111 18.375 20.5916V23.3333H0ZM9.1875 12.2208C9.94583 12.2208 10.5729 11.9729 11.0688 11.477C11.5646 10.9812 11.8125 10.3541 11.8125 9.5958C11.8125 8.83746 11.5646 8.21038 11.0688 7.71455C10.5729 7.21871 9.94583 6.9708 9.1875 6.9708C8.42917 6.9708 7.80208 7.21871 7.30625 7.71455C6.81042 8.21038 6.5625 8.83746 6.5625 9.5958C6.5625 10.3541 6.81042 10.9812 7.30625 11.477C7.80208 11.9729 8.42917 12.2208 9.1875 12.2208ZM1.75 21.5833H16.625V20.5916C16.625 20.2805 16.5472 19.9889 16.3917 19.7166C16.2361 19.4444 15.9931 19.2305 15.6625 19.075C14.3208 18.4527 13.1833 18.0347 12.25 17.8208C11.3167 17.6069 10.2958 17.5 9.1875 17.5C8.07917 17.5 7.06319 17.6069 6.13958 17.8208C5.21597 18.0347 4.06389 18.4527 2.68333 19.075C2.39167 19.2111 2.16319 19.4201 1.99792 19.702C1.83264 19.984 1.75 20.2805 1.75 20.5916V21.5833Z" fill="black"/>
</svg>
