<svg width="37" height="35" viewBox="0 0 37 35" fill="none" xmlns="http://www.w3.org/2000/svg">
<path d="M14.4431 32.0833L13.7372 27.4651C13.3087 27.3113 12.8697 27.1088 12.4203 26.8577C11.9709 26.6064 11.5654 26.3431 11.204 26.0677L6.73009 27.9879L2.99951 21.6927L7.02008 18.8245C6.97799 18.622 6.95278 18.4013 6.94447 18.1624C6.9359 17.9232 6.93161 17.7024 6.93161 17.5C6.93161 17.2975 6.9359 17.0767 6.94447 16.8375C6.95278 16.5986 6.97799 16.3779 7.02008 16.1754L2.99951 13.3073L6.73009 7.01199L11.204 8.93225C11.5654 8.65687 11.973 8.39352 12.4267 8.1422C12.8804 7.89112 13.3172 7.69668 13.7372 7.55887L14.4431 2.91663H21.8535L22.5594 7.5348C22.9879 7.68866 23.431 7.88711 23.8888 8.13017C24.3468 8.37322 24.748 8.64058 25.0926 8.93225L29.5665 7.01199L33.2971 13.3073L29.2765 16.1266C29.3186 16.3453 29.3438 16.5743 29.3521 16.8134C29.3607 17.0524 29.365 17.2812 29.365 17.5C29.365 17.7187 29.3607 17.9435 29.3521 18.1744C29.3438 18.4053 29.3145 18.6302 29.264 18.8489L33.2842 21.6927L29.554 27.9879L25.0926 26.0677C24.7312 26.3431 24.3279 26.6104 23.8827 26.8698C23.4373 27.1291 22.9962 27.3275 22.5594 27.4651L21.8535 32.0833H14.4431ZM16.535 29.6526H19.7487L20.2781 25.6422C21.0932 25.4478 21.86 25.15 22.5783 24.749C23.2967 24.3479 23.9499 23.8639 24.538 23.2968L28.4576 24.913L29.9571 22.3369L26.504 19.8698C26.6131 19.4809 26.6972 19.0899 26.7562 18.6969C26.8149 18.3041 26.8443 17.9051 26.8443 17.5C26.8443 17.0948 26.8191 16.6958 26.7687 16.303C26.7183 15.91 26.63 15.5191 26.504 15.1302L29.9571 12.663L28.4576 10.0869L24.538 11.7151C23.9665 11.1075 23.3259 10.5991 22.6161 10.1901C21.9061 9.781 21.1267 9.50355 20.2781 9.35772L19.7616 5.3473H16.5479L16.0185 9.35772C15.1868 9.53588 14.4117 9.82548 13.6933 10.2265C12.9749 10.6276 12.3301 11.1198 11.7586 11.7031L7.83902 10.0869L6.33953 12.663L9.79259 15.1181C9.68345 15.515 9.59939 15.9079 9.54041 16.2968C9.48168 16.6857 9.45231 17.0868 9.45231 17.5C9.45231 17.9051 9.48168 18.3022 9.54041 18.6911C9.59939 19.0799 9.68345 19.4728 9.79259 19.8698L6.33953 22.3369L7.83902 24.913L11.7586 23.2848C12.3467 23.8599 12.9999 24.3479 13.7183 24.749C14.4366 25.15 15.2034 25.4478 16.0185 25.6422L16.535 29.6526ZM18.1736 22.3609C19.5683 22.3609 20.7571 21.887 21.7401 20.9391C22.7231 19.9912 23.2147 18.8448 23.2147 17.5C23.2147 16.1551 22.7231 15.0088 21.7401 14.0608C20.7571 13.1129 19.5683 12.639 18.1736 12.639C16.7704 12.639 15.5795 13.1129 14.6007 14.0608C13.6217 15.0088 13.1322 16.1551 13.1322 17.5C13.1322 18.8448 13.6217 19.9912 14.6007 20.9391C15.5795 21.887 16.7704 22.3609 18.1736 22.3609Z" fill="#404040"/>
</svg>
