<svg width="37" height="35" viewBox="0 0 37 35" fill="none" xmlns="http://www.w3.org/2000/svg">
<path d="M14.4428 32.0833L13.7369 27.4651C13.3084 27.3113 12.8695 27.1088 12.42 26.8577C11.9706 26.6064 11.5652 26.3431 11.2037 26.0677L6.72985 27.9879L2.99927 21.6927L7.01984 18.8245C6.97774 18.622 6.95254 18.4013 6.94422 18.1624C6.93565 17.9232 6.93137 17.7024 6.93137 17.5C6.93137 17.2975 6.93565 17.0767 6.94422 16.8375C6.95254 16.5986 6.97774 16.3779 7.01984 16.1754L2.99927 13.3073L6.72985 7.01199L11.2037 8.93225C11.5652 8.65687 11.9728 8.39352 12.4265 8.1422C12.8802 7.89112 13.317 7.69668 13.7369 7.55887L14.4428 2.91663H21.8533L22.5592 7.5348C22.9877 7.68866 23.4308 7.88711 23.8885 8.13017C24.3465 8.37322 24.7478 8.64058 25.0924 8.93225L29.5663 7.01199L33.2968 13.3073L29.2763 16.1266C29.3184 16.3453 29.3436 16.5743 29.3519 16.8134C29.3605 17.0524 29.3647 17.2812 29.3647 17.5C29.3647 17.7187 29.3605 17.9435 29.3519 18.1744C29.3436 18.4053 29.3142 18.6302 29.2638 18.8489L33.284 21.6927L29.5538 27.9879L25.0924 26.0677C24.7309 26.3431 24.3276 26.6104 23.8825 26.8698C23.4371 27.1291 22.996 27.3275 22.5592 27.4651L21.8533 32.0833H14.4428ZM16.5348 29.6526H19.7485L20.2778 25.6422C21.093 25.4478 21.8597 25.15 22.5781 24.749C23.2965 24.3479 23.9497 23.8639 24.5377 23.2968L28.4573 24.913L29.9568 22.3369L26.5038 19.8698C26.6129 19.4809 26.697 19.0899 26.7559 18.6969C26.8147 18.3041 26.844 17.9051 26.844 17.5C26.844 17.0948 26.8188 16.6958 26.7684 16.303C26.718 15.91 26.6298 15.5191 26.5038 15.1302L29.9568 12.663L28.4573 10.0869L24.5377 11.7151C23.9663 11.1075 23.3257 10.5991 22.6159 10.1901C21.9059 9.781 21.1265 9.50355 20.2778 9.35772L19.7613 5.3473H16.5476L16.0183 9.35772C15.1865 9.53588 14.4114 9.82548 13.6931 10.2265C12.9747 10.6276 12.3298 11.1198 11.7584 11.7031L7.83877 10.0869L6.33928 12.663L9.79235 15.1181C9.68321 15.515 9.59914 15.9079 9.54016 16.2968C9.48143 16.6857 9.45207 17.0868 9.45207 17.5C9.45207 17.9051 9.48143 18.3022 9.54016 18.6911C9.59914 19.0799 9.68321 19.4728 9.79235 19.8698L6.33928 22.3369L7.83877 24.913L11.7584 23.2848C12.3464 23.8599 12.9997 24.3479 13.718 24.749C14.4364 25.15 15.2031 25.4478 16.0183 25.6422L16.5348 29.6526ZM18.1734 22.3609C19.568 22.3609 20.7569 21.887 21.7399 20.9391C22.7229 19.9912 23.2144 18.8448 23.2144 17.5C23.2144 16.1551 22.7229 15.0088 21.7399 14.0608C20.7569 13.1129 19.568 12.639 18.1734 12.639C16.7702 12.639 15.5792 13.1129 14.6005 14.0608C13.6215 15.0088 13.132 16.1551 13.132 17.5C13.132 18.8448 13.6215 19.9912 14.6005 20.9391C15.5792 21.887 16.7702 22.3609 18.1734 22.3609Z" fill="#404040"/>
</svg>
