<svg width="16" height="16" viewBox="0 0 16 16" fill="none" xmlns="http://www.w3.org/2000/svg">
<path id="Vector" d="M4.54167 3.54167L6.83333 0.583333C6.98347 0.382639 7.16188 0.235209 7.36854 0.141042C7.57507 0.0470143 7.79097 0 8.01625 0C8.24153 0 8.45486 0.0486111 8.65625 0.145833C8.85764 0.243056 9.03472 0.388889 9.1875 0.583333L11.4792 3.54167L14.9792 4.6875C15.2986 4.79861 15.5486 4.98403 15.7292 5.24375C15.9097 5.50333 16 5.79014 16 6.10417C16 6.25306 15.979 6.40201 15.9369 6.55104C15.8947 6.69993 15.8254 6.84264 15.7292 6.97917L13.4792 10.125L13.5625 13.5C13.5625 13.9306 13.4167 14.2951 13.125 14.5938C12.8333 14.8924 12.4849 15.0417 12.0796 15.0417C12.0543 15.0417 11.9236 15.0208 11.6875 14.9792L8 13.9583L4.31146 14.98C4.24271 15.0072 4.17708 15.0243 4.11458 15.0312C4.05208 15.0382 3.98938 15.0417 3.92646 15.0417C3.52382 15.0417 3.17153 14.8924 2.86958 14.5938C2.56764 14.2951 2.42361 13.9306 2.4375 13.5L2.52083 10.125L0.270833 6.97917C0.173611 6.84028 0.104167 6.70139 0.0625 6.5625C0.0208333 6.42361 0 6.27757 0 6.12437C0 5.80535 0.0915278 5.51375 0.274583 5.24958C0.457639 4.98542 0.713333 4.79806 1.04167 4.6875L4.54167 3.54167ZM5.41667 4.83333L1.5 6.125L4.01875 9.68833L3.9375 13.5417L8 12.3958L12.0833 13.5208L11.9792 9.66667L14.5 6.10417L10.5625 4.83333L8 1.54167L5.41667 4.83333Z" fill="#7BD224"/>
</svg>
