<svg width="15" height="15" viewBox="0 0 15 15" fill="none" xmlns="http://www.w3.org/2000/svg">
<g id="schedule_16dp_FFFFFF_FILL0_wght400_GRAD0_opsz20 1">
<path id="Vector" d="M9.59375 10.1562L10.3906 9.35937L8.0625 7.03125V3.75H6.9375V7.5L9.59375 10.1562ZM7.5 13.5C6.67312 13.5 5.89609 13.3437 5.16891 13.0312C4.44172 12.7187 3.80469 12.2891 3.25781 11.7422C2.71094 11.1953 2.28125 10.5575 1.96875 9.82875C1.65625 9.1 1.5 8.32135 1.5 7.49281C1.5 6.66427 1.65625 5.88542 1.96875 5.15625C2.28125 4.42708 2.71094 3.79167 3.25781 3.25C3.80469 2.70833 4.4425 2.28125 5.17125 1.96875C5.9 1.65625 6.67865 1.5 7.50719 1.5C8.33573 1.5 9.11463 1.6575 9.84391 1.9725C10.5731 2.2875 11.2074 2.715 11.7469 3.255C12.2862 3.795 12.7133 4.43 13.028 5.16C13.3427 5.89 13.5 6.67 13.5 7.5C13.5 8.32687 13.3437 9.10391 13.0312 9.83109C12.7187 10.5583 12.2917 11.1953 11.75 11.7422C11.2083 12.2891 10.5722 12.7187 9.84172 13.0312C9.1112 13.3437 8.33062 13.5 7.5 13.5ZM7.5075 12.375C8.85615 12.375 10.0046 11.8984 10.9528 10.9453C11.9009 9.99219 12.375 8.84125 12.375 7.4925C12.375 6.14385 11.9009 4.99542 10.9528 4.04719C10.0046 3.09906 8.85615 2.625 7.5075 2.625C6.15875 2.625 5.00781 3.09906 4.05469 4.04719C3.10156 4.99542 2.625 6.14385 2.625 7.4925C2.625 8.84125 3.10156 9.99219 4.05469 10.9453C5.00781 11.8984 6.15875 12.375 7.5075 12.375Z" fill="white"/>
</g>
</svg>
