<svg width="14" height="14" viewBox="0 0 14 14" fill="none" xmlns="http://www.w3.org/2000/svg">
<g id="toll_16dp_6A7282_FILL0_wght400_GRAD0_opsz20 1">
<path id="Vector" d="M8.3999 11.2C7.23324 11.2 6.24157 10.7917 5.4249 9.97505C4.60824 9.15838 4.1999 8.16672 4.1999 7.00005C4.1999 5.83338 4.60824 4.84172 5.4249 4.02505C6.24157 3.20838 7.23324 2.80005 8.3999 2.80005C9.56657 2.80005 10.5582 3.20838 11.3749 4.02505C12.1916 4.84172 12.5999 5.83338 12.5999 7.00005C12.5999 8.16672 12.1916 9.15838 11.3749 9.97505C10.5582 10.7917 9.56657 11.2 8.3999 11.2ZM4.8999 11.1417C3.87907 10.9764 3.04053 10.5025 2.38428 9.71984C1.72803 8.9372 1.3999 8.0306 1.3999 7.00005C1.3999 5.96949 1.73046 5.06533 2.39157 4.28755C3.05268 3.50977 3.88879 3.03338 4.8999 2.85838V3.93755C4.18046 4.10283 3.59226 4.47227 3.13532 5.04588C2.67837 5.61949 2.4499 6.27331 2.4499 7.00734C2.4499 7.74137 2.67837 8.39276 3.13532 8.96151C3.59226 9.53026 4.18046 9.89727 4.8999 10.0625V11.1417ZM8.3999 10.15C9.2749 10.15 10.0187 9.8438 10.6312 9.2313C11.2437 8.6188 11.5499 7.87505 11.5499 7.00005C11.5499 6.12505 11.2437 5.3813 10.6312 4.7688C10.0187 4.1563 9.2749 3.85005 8.3999 3.85005C7.5249 3.85005 6.78115 4.1563 6.16865 4.7688C5.55615 5.3813 5.2499 6.12505 5.2499 7.00005C5.2499 7.87505 5.55615 8.6188 6.16865 9.2313C6.78115 9.8438 7.5249 10.15 8.3999 10.15Z" fill="#6A7282"/>
</g>
</svg>
