<svg width="37" height="35" viewBox="0 0 37 35" fill="none" xmlns="http://www.w3.org/2000/svg">
<g id="settings_36dp_404040_FILL0_wght400_GRAD0_opsz40 1">
<path id="Vector" d="M14.4429 32.0833L13.737 27.4651C13.3085 27.3113 12.8695 27.1088 12.4201 26.8577C11.9707 26.6064 11.5653 26.3431 11.2038 26.0677L6.72991 27.9879L2.99933 21.6927L7.0199 18.8245C6.97781 18.622 6.9526 18.4013 6.94428 18.1624C6.93571 17.9232 6.93143 17.7024 6.93143 17.5C6.93143 17.2975 6.93571 17.0767 6.94428 16.8375C6.9526 16.5986 6.97781 16.3779 7.0199 16.1754L2.99933 13.3073L6.72991 7.01199L11.2038 8.93225C11.5653 8.65687 11.9728 8.39352 12.4265 8.1422C12.8802 7.89112 13.3171 7.69668 13.737 7.55887L14.4429 2.91663H21.8534L22.5592 7.5348C22.9877 7.68866 23.4309 7.88711 23.8886 8.13017C24.3466 8.37322 24.7479 8.64058 25.0924 8.93225L29.5663 7.01199L33.2969 13.3073L29.2763 16.1266C29.3184 16.3453 29.3436 16.5743 29.352 16.8134C29.3605 17.0524 29.3648 17.2812 29.3648 17.5C29.3648 17.7187 29.3605 17.9435 29.352 18.1744C29.3436 18.4053 29.3143 18.6302 29.2639 18.8489L33.284 21.6927L29.5538 27.9879L25.0924 26.0677C24.731 26.3431 24.3277 26.6104 23.8826 26.8698C23.4372 27.1291 22.9961 27.3275 22.5592 27.4651L21.8534 32.0833H14.4429ZM16.5348 29.6526H19.7486L20.2779 25.6422C21.093 25.4478 21.8598 25.15 22.5782 24.749C23.2965 24.3479 23.9497 23.8639 24.5378 23.2968L28.4574 24.913L29.9569 22.3369L26.5038 19.8698C26.613 19.4809 26.697 19.0899 26.756 18.6969C26.8147 18.3041 26.8441 17.9051 26.8441 17.5C26.8441 17.0948 26.8189 16.6958 26.7685 16.303C26.7181 15.91 26.6299 15.5191 26.5038 15.1302L29.9569 12.663L28.4574 10.0869L24.5378 11.7151C23.9664 11.1075 23.3258 10.5991 22.616 10.1901C21.9059 9.781 21.1266 9.50355 20.2779 9.35772L19.7614 5.3473H16.5477L16.0184 9.35772C15.1866 9.53588 14.4115 9.82548 13.6931 10.2265C12.9748 10.6276 12.3299 11.1198 11.7585 11.7031L7.83883 10.0869L6.33934 12.663L9.79241 15.1181C9.68327 15.515 9.59921 15.9079 9.54022 16.2968C9.48149 16.6857 9.45213 17.0868 9.45213 17.5C9.45213 17.9051 9.48149 18.3022 9.54022 18.6911C9.59921 19.0799 9.68327 19.4728 9.79241 19.8698L6.33934 22.3369L7.83883 24.913L11.7585 23.2848C12.3465 23.8599 12.9997 24.3479 13.7181 24.749C14.4364 25.15 15.2032 25.4478 16.0184 25.6422L16.5348 29.6526ZM18.1734 22.3609C19.5681 22.3609 20.7569 21.887 21.7399 20.9391C22.723 19.9912 23.2145 18.8448 23.2145 17.5C23.2145 16.1551 22.723 15.0088 21.7399 14.0608C20.7569 13.1129 19.5681 12.639 18.1734 12.639C16.7702 12.639 15.5793 13.1129 14.6005 14.0608C13.6215 15.0088 13.132 16.1551 13.132 17.5C13.132 18.8448 13.6215 19.9912 14.6005 20.9391C15.5793 21.887 16.7702 22.3609 18.1734 22.3609Z" fill="#404040"/>
</g>
</svg>
