<svg width="24" height="24" viewBox="0 0 24 24" fill="none" xmlns="http://www.w3.org/2000/svg">
<g id="toll_16dp_6A7282_FILL0_wght400_GRAD0_opsz20 1">
<path id="Vector" d="M14.4 19.2C12.4 19.2 10.7 18.5 9.3 17.1C7.9 15.7 7.2 14 7.2 12C7.2 10 7.9 8.3 9.3 6.89999C10.7 5.49999 12.4 4.79999 14.4 4.79999C16.4 4.79999 18.1 5.49999 19.5 6.89999C20.9 8.3 21.6 10 21.6 12C21.6 14 20.9 15.7 19.5 17.1C18.1 18.5 16.4 19.2 14.4 19.2ZM8.4 19.1C6.65 18.8167 5.2125 18.0042 4.0875 16.6625C2.9625 15.3208 2.4 13.7667 2.4 12C2.4 10.2333 2.96666 8.68333 4.1 7.35C5.23333 6.01666 6.66667 5.19999 8.4 4.89999V6.74999C7.16667 7.03333 6.15833 7.66666 5.375 8.65C4.59166 9.63333 4.2 10.7542 4.2 12.0125C4.2 13.2708 4.59166 14.3875 5.375 15.3625C6.15833 16.3375 7.16667 16.9667 8.4 17.25V19.1ZM14.4 17.4C15.9 17.4 17.175 16.875 18.225 15.825C19.275 14.775 19.8 13.5 19.8 12C19.8 10.5 19.275 9.225 18.225 8.175C17.175 7.12499 15.9 6.59999 14.4 6.59999C12.9 6.59999 11.625 7.12499 10.575 8.175C9.525 9.225 9 10.5 9 12C9 13.5 9.525 14.775 10.575 15.825C11.625 16.875 12.9 17.4 14.4 17.4Z" fill="#6A7282"/>
</g>
</svg>
