<svg width="14" height="14" viewBox="0 0 14 14" fill="none" xmlns="http://www.w3.org/2000/svg">
<g id="toll_16dp_6A7282_FILL0_wght400_GRAD0_opsz20 1">
<path id="Vector" d="M8.39999 11.2C7.23333 11.2 6.24166 10.7917 5.42499 9.97505C4.60833 9.15838 4.19999 8.16672 4.19999 7.00005C4.19999 5.83338 4.60833 4.84172 5.42499 4.02505C6.24166 3.20838 7.23333 2.80005 8.39999 2.80005C9.56666 2.80005 10.5583 3.20838 11.375 4.02505C12.1917 4.84172 12.6 5.83338 12.6 7.00005C12.6 8.16672 12.1917 9.15838 11.375 9.97505C10.5583 10.7917 9.56666 11.2 8.39999 11.2ZM4.89999 11.1417C3.87916 10.9764 3.04062 10.5025 2.38437 9.71984C1.72812 8.9372 1.39999 8.0306 1.39999 7.00005C1.39999 5.96949 1.73055 5.06533 2.39166 4.28755C3.05277 3.50977 3.88888 3.03338 4.89999 2.85838V3.93755C4.18055 4.10283 3.59236 4.47227 3.13541 5.04588C2.67847 5.61949 2.44999 6.27331 2.44999 7.00734C2.44999 7.74137 2.67847 8.39276 3.13541 8.96151C3.59236 9.53026 4.18055 9.89727 4.89999 10.0625V11.1417ZM8.39999 10.15C9.27499 10.15 10.0187 9.8438 10.6312 9.2313C11.2437 8.6188 11.55 7.87505 11.55 7.00005C11.55 6.12505 11.2437 5.3813 10.6312 4.7688C10.0187 4.1563 9.27499 3.85005 8.39999 3.85005C7.52499 3.85005 6.78124 4.1563 6.16874 4.7688C5.55624 5.3813 5.24999 6.12505 5.24999 7.00005C5.24999 7.87505 5.55624 8.6188 6.16874 9.2313C6.78124 9.8438 7.52499 10.15 8.39999 10.15Z" fill="#6A7282"/>
</g>
</svg>
